# xmcd
#
# Track frame offsets:
#	150
#	31742
#	54330
#	95500
#	119970
#	140815
#	162722
#
# Disc length: 2440 seconds
#
# Revision: 0
# Processed by: cddbd v1.5.2PL0 Copyright (c) Steve Scherf et al.
# Submitted via: audiograbber 1.83.01
#
DISCID=66098607
DTITLE=Charlie Byrd - Blues Sonata
DYEAR=1961
DGENRE=Jazz
TTITLE0=Blues Sonata - Polonaise Pour Pietro
TTITLE1=Blues Sonata - Ballad In B Minor
TTITLE2=Blues Sonata - Scherzo For An Old Shoe
TTITLE3=Alexander's Ragtime Band
TTITLE4=Jordu
TTITLE5=That Ole Devil Called Love
TTITLE6=Zing ! Went The Strings Of My Heart
EXTD=RIVERSIDE, \n1961oct23 NYCity Plaza Sound Studios , \nREmastered 2001
EXTT0=
EXTT1=
EXTT2=
EXTT3=
EXTT4=
EXTT5=
EXTT6=
PLAYORDER=
